PathFileType	4	(X/Y/Z)	Patient4_TMGait_0pt3_03_left_28.trc.trc
DataRate	CameraRate	NumFrames	NumMarkers	Units	OrigDataRate	OrigDataStartFrame	OrigNumFrames
52.434456928839	52.434456928839	5	33	mm	52.434456928839	89	       141
Frame#	Time	Sacral			L.Shoulder			Chest			R.Shoulder			Neck			R.ASIS			L.ASIS			R.Thigh.Superior			R.Thigh.Lateral			R.Thigh.Inferior			R.Patella			L.Thigh.Superior			L.Thigh.Lateral			L.Thigh.Inferior			L.Patella			L.Shank.Superior			L.Shank.Lateral			L.Shank.Inferior			R.Shank.Superior			R.Shank.Lateral			R.Shank.Inferior			R.Heel			R.Midfoot.Superior			R.Midfoot.Lateral			R.Toe			L.Heel			L.Midfoot.Lateral			L.Midfoot.Superior			L.Toe			L.Elbow			L.Wrist			R.Elbow			R.Wrist			
		X1	Y1	Z1	X2	Y2	Z2	X3	Y3	Z3	X4	Y4	Z4	X5	Y5	Z5	X6	Y6	Z6	X7	Y7	Z7	X8	Y8	Z8	X9	Y9	Z9	X10	Y10	Z10	X11	Y11	Z11	X12	Y12	Z12	X13	Y13	Z13	X14	Y14	Z14	X15	Y15	Z15	X16	Y16	Z16	X17	Y17	Z17	X18	Y18	Z18	X19	Y19	Z19	X20	Y20	Z20	X21	Y21	Z21	X22	Y22	Z22	X23	Y23	Z23	X24	Y24	Z24	X25	Y25	Z25	X26	Y26	Z26	X27	Y27	Z27	X28	Y28	Z28	X29	Y29	Z29	X30	Y30	Z30	X31	Y31	Z31	X32	Y32	Z32	X33	Y33	Z33	

89	51.078285714286	708.734364270836	1009.518869211753	528.373119196924	942.753013358748	1439.398532783124	413.594373527879	992.178667635958	1361.091278864512	593.714243020061	864.564857099902	1431.479284460033	739.405869771907	879.710511066814	1495.507885380585	563.469696189107	909.105271527661	937.772186229121	693.578865616654	951.003032789982	962.893258847401	422.843422163705	969.551046306168	745.869355902050	658.706195225317	888.964146207907	631.028506114200	705.225381042382	977.779390407110	585.816042063457	631.806411348291	983.976173628279	498.521401161355	635.597641977544	963.487800100019	733.491058254523	443.584261045318	869.079974958792	628.849623103053	363.724564420367	933.318268458393	538.728814876277	432.262421773069	922.891600435297	462.802031980492	432.655215103064	871.627481963497	402.522018937980	418.698106858568	754.694965586907	324.673456897067	353.270009996967	765.840396363129	198.040357840563	416.063303375171	958.277236956518	408.217848284552	639.479755716662	887.429960010662	301.517992725137	698.127028092929	935.277390525799	208.725580695218	634.554007450147	806.430892804924	42.893057693242	598.534470513531	976.985276510893	97.754812414494	639.292304347995	888.296951876763	36.874043274621	675.010886338950	1096.426121232476	46.720398067160	668.205161359415	598.670646162532	73.646850917291	439.172479939766	674.472306542675	56.431842705058	363.181247940674	766.332457175978	102.741514225721	394.288449738978	882.941932717168	35.561178514058	369.737506625363	1070.832900089701	1125.371647486593	279.014318746946	1326.422626059440	1106.666945600470	323.532022847372	732.670347107119	1096.262581769320	808.661815767070	773.649474340702	838.563389751362	824.329918713221	
90	51.097357142857	707.948267661274	1010.233329413662	534.521714665327	940.401171461485	1439.940122544153	416.296755912074	992.333111009173	1361.795052869750	595.836983279038	866.654297077382	1432.090187505507	743.004133526200	879.381469565040	1496.269528357510	566.727818510570	910.260110509336	938.449692140674	697.139709228522	948.917369920291	963.612013781837	426.179733123947	968.253348307124	745.192030086251	662.293747068163	886.250158389406	631.023821260170	708.515165320238	974.258247040790	585.173903627256	634.664036785180	979.441374830532	498.058139143379	637.902754625227	965.776607713336	735.757875679011	447.021705530099	874.254980446843	629.138393812039	367.284332745093	941.540920017157	539.998458880280	435.329384004772	932.030365597807	462.623628620656	434.787955134105	878.406325551573	402.926383273420	421.091502875029	758.824934700879	329.200337780761	355.667246402091	766.931726828458	201.599481920942	416.892719676870	953.551496080470	407.992759701455	641.441729378611	882.465356919905	301.216294027616	699.595663154661	930.009410451937	208.613175190561	635.456829609201	800.857973203895	42.810965267256	598.696905594139	971.390356753310	97.744084531751	639.542270183437	882.749552359866	36.809257432424	675.141179567907	1090.874697073134	46.711521842813	668.375913232720	596.036225063445	82.867994566534	439.178598461650	671.169650469596	62.820585723961	363.216974316632	764.709066675283	105.415145563331	394.345701087731	878.217861244775	34.471277639908	369.834762822807	1063.179433147323	1121.742887816343	284.278521012595	1318.072289275982	1090.315446010719	327.803481972456	742.004857978354	1094.608195482359	817.506372046285	792.302809754938	838.676804753522	834.933744985947	
91	51.116428571429	706.944488265599	1010.800622885269	540.474392749710	937.730649414918	1440.341998482971	418.744828854880	992.233724116848	1362.349327592835	597.639646654191	868.636457058507	1432.559789260789	746.376474487960	878.840351288754	1496.899211537500	569.785291435136	911.230683263406	939.020396553190	700.421835558756	946.565039260599	964.205287377569	429.238922260528	966.843949864369	744.500460824602	665.539845225725	883.560235409117	630.948294735041	711.566876007963	970.756160379727	584.517559458518	637.266339248553	974.993380539765	497.546865728267	640.040854184444	968.265457982936	738.281999111418	450.373304043111	880.081578872620	629.520694331970	370.708098599755	950.457576780156	541.629545588582	438.453593238765	941.926305118488	462.769267997307	436.968990283067	885.996648519286	403.578827503907	423.487976973653	763.813937266481	334.172336223438	358.157371146603	768.675306947769	205.749620415688	417.868199930464	948.881594136835	407.718339062924	643.250607881290	877.526464567598	300.901417250221	700.904540722636	924.750853922720	208.466581578277	636.266429727825	795.237137561386	42.752825378741	598.829100553295	965.758852176251	97.715256876765	639.756999045439	877.145324808354	36.762952898647	675.245230310331	1085.265982484636	46.669100364052	668.535208938889	594.093016228751	93.122111239294	439.445861555889	668.382465226022	70.233456695643	363.428661500919	763.601614012113	108.787210699186	394.578967151989	873.688373742121	33.620818130859	369.945905888599	1054.632612185519	1117.958526996790	289.115398414914	1307.813239489738	1072.136296772726	331.675569605562	752.047238359264	1092.916524247176	826.407742835480	811.389438650881	839.014275801421	845.372270324455	
92	51.135500000000	705.749723736474	1011.160406843575	546.207990879380	934.773708289056	1440.564018572253	420.947670395543	991.865707556892	1362.721768946992	599.141334523536	870.457706797839	1432.859664337053	749.516343300265	878.081009841873	1497.359864104157	572.637330664629	912.022487359022	939.460304716882	703.429425540827	943.996705883319	964.636817950329	432.022073799336	965.454178911348	743.822803956956	668.418203072115	881.109392018389	630.785136523740	714.354887772475	967.514697361142	583.861739376292	639.584156722381	970.924208607046	496.956534808113	641.981360314278	970.909129399594	741.037288604006	453.659759082190	886.468160590698	630.037517650776	374.009012913636	959.909219181132	543.652822247314	441.665403443101	952.435608172301	463.282885032909	439.233713693470	894.278308290542	404.508478174127	425.901135252434	769.562927110416	339.579398217906	360.778572912513	771.010680454012	210.494507837350	419.032885032815	944.492297651316	407.360041893289	644.865086305186	872.799354452190	300.575576594380	702.043428030959	919.596680658993	208.259523729315	636.949183778107	789.566006039684	42.728446180751	598.932957561236	960.094422500513	97.662981193159	639.922715952593	871.483780080789	36.739922357638	675.320258067203	1079.605725625606	46.569345775915	668.675565831125	592.883363302690	104.309147785975	440.071125571513	666.142456615713	78.647947611098	363.897372027753	762.985239661247	112.924902704782	395.039625983326	869.383353636123	33.153750275448	370.076194833158	1045.288742856465	1114.040122090643	293.513358694600	1295.421909273598	1052.264325700544	335.090329941822	762.780795943336	1091.169623980845	835.239874531437	830.871546889450	839.539888603414	855.581118058145	
93	51.154571428571	704.394230749910	1011.258679169200	551.705530092745	931.556972452535	1440.569690327453	422.911793234591	991.219632648132	1362.890693608223	600.361145591216	872.070356116535	1432.972141307850	752.414363799918	877.097277699785	1497.620568323435	575.274875869853	912.643538804621	939.744443869339	706.175432957639	941.272050432914	964.880809309513	434.539301042501	964.211456079074	743.176509207039	670.929776901097	879.090931693938	630.510865279044	716.860825680729	964.761940179503	583.213001837423	641.605425437573	967.507362464976	496.253110280002	643.703024237975	973.651637034823	743.987303016723	456.904450577638	893.300753768472	630.726766083060	377.196728108256	969.721194935601	546.082849419648	444.976178867343	963.399947059136	464.195760177731	441.593972493251	903.110680284405	405.734176763249	428.331798521296	775.949080862886	345.392125994226	363.557329219000	773.864920692585	215.814970937485	420.422413155194	940.591411686316	406.882386645935	646.254413621032	868.453502930586	300.238580173746	703.009650308181	914.636810970357	207.969884491088	637.482390161184	783.854644193111	42.744995829848	599.011416327474	954.406454296290	97.585827957979	640.029905625791	865.775587735762	36.742888176747	675.365812594129	1073.907112048647	46.400214560916	668.794029449909	592.423902925608	116.290193298983	441.147277903495	664.461571227341	87.990411947607	364.702922880398	762.821380287607	117.857856410567	395.771049170672	865.329711523421	33.233741767413	370.239027712624	1035.250330559998	1110.004859972744	297.490629729832	1280.689543183230	1030.904932915361	337.988935665337	774.137062643599	1089.375394390805	843.859884669811	850.705709622628	840.260572419764	865.483524095229	
